<mxfile host="app.diagrams.net" modified="2020-08-10T15:29:27.091Z" agent="5.0 (Macintosh; Intel Mac OS X 10_15_6) AppleWebKit/605.1.15 (KHTML, like Gecko) Version/13.1.2 Safari/605.1.15" etag="EYjEiUsXb6xOrRKXlsWH" version="13.6.2" type="github">
  <diagram id="C5RBs43oDa-KdzZeNtuy" name="Page-1">
    <mxGraphModel dx="622" dy="666" grid="1" gridSize="10" guides="1" tooltips="1" connect="1" arrows="1" fold="1" page="1" pageScale="1" pageWidth="827" pageHeight="1169" math="0" shadow="0">
      <root>
        <mxCell id="WIyWlLk6GJQsqaUBKTNV-0" />
        <mxCell id="WIyWlLk6GJQsqaUBKTNV-1" parent="WIyWlLk6GJQsqaUBKTNV-0" />
        <mxCell id="WIyWlLk6GJQsqaUBKTNV-2" value="「ログイン」&lt;br&gt;ボタンを押す" style="rounded=0;html=1;jettySize=auto;orthogonalLoop=1;fontSize=11;endArrow=block;endFill=0;endSize=8;strokeWidth=1;shadow=0;labelBackgroundColor=none;edgeStyle=orthogonalEdgeStyle;" parent="WIyWlLk6GJQsqaUBKTNV-1" target="WIyWlLk6GJQsqaUBKTNV-6" edge="1">
          <mxGeometry y="-35" relative="1" as="geometry">
            <mxPoint x="235" y="130" as="sourcePoint" />
            <mxPoint as="offset" />
          </mxGeometry>
        </mxCell>
        <mxCell id="WIyWlLk6GJQsqaUBKTNV-4" value="Yes" style="rounded=0;html=1;jettySize=auto;orthogonalLoop=1;fontSize=11;endArrow=block;endFill=0;endSize=8;strokeWidth=1;shadow=0;labelBackgroundColor=none;edgeStyle=orthogonalEdgeStyle;" parent="WIyWlLk6GJQsqaUBKTNV-1" source="WIyWlLk6GJQsqaUBKTNV-6" edge="1">
          <mxGeometry y="20" relative="1" as="geometry">
            <mxPoint as="offset" />
            <mxPoint x="235" y="360" as="targetPoint" />
          </mxGeometry>
        </mxCell>
        <mxCell id="WIyWlLk6GJQsqaUBKTNV-5" value="No" style="edgeStyle=orthogonalEdgeStyle;rounded=0;html=1;jettySize=auto;orthogonalLoop=1;fontSize=11;endArrow=block;endFill=0;endSize=8;strokeWidth=1;shadow=0;labelBackgroundColor=none;" parent="WIyWlLk6GJQsqaUBKTNV-1" source="WIyWlLk6GJQsqaUBKTNV-6" edge="1">
          <mxGeometry x="-0.5484" y="10" relative="1" as="geometry">
            <mxPoint as="offset" />
            <mxPoint x="375" y="360" as="targetPoint" />
          </mxGeometry>
        </mxCell>
        <mxCell id="WIyWlLk6GJQsqaUBKTNV-6" value="ユーザー&lt;br&gt;登録済みか？" style="rhombus;whiteSpace=wrap;html=1;shadow=0;fontFamily=Helvetica;fontSize=12;align=center;strokeWidth=1;spacing=6;spacingTop=-4;" parent="WIyWlLk6GJQsqaUBKTNV-1" vertex="1">
          <mxGeometry x="170" y="230" width="130" height="100" as="geometry" />
        </mxCell>
        <mxCell id="3_x2MFgSif2VCrNl19pF-1" value="「新規登録」&lt;br&gt;ボタンを押す" style="rounded=0;html=1;jettySize=auto;orthogonalLoop=1;fontSize=11;endArrow=block;endFill=0;endSize=8;strokeWidth=1;shadow=0;labelBackgroundColor=none;edgeStyle=orthogonalEdgeStyle;exitX=0.845;exitY=1;exitDx=0;exitDy=0;exitPerimeter=0;" edge="1" parent="WIyWlLk6GJQsqaUBKTNV-1" source="3_x2MFgSif2VCrNl19pF-3">
          <mxGeometry x="-0.1818" y="67" relative="1" as="geometry">
            <mxPoint x="375.12" y="150" as="sourcePoint" />
            <mxPoint x="416" y="360" as="targetPoint" />
            <Array as="points">
              <mxPoint x="416" y="230" />
            </Array>
            <mxPoint x="-22" y="-50" as="offset" />
          </mxGeometry>
        </mxCell>
        <mxCell id="3_x2MFgSif2VCrNl19pF-3" value="初期ページ&lt;br&gt;index.blade.php" style="shape=parallelogram;perimeter=parallelogramPerimeter;whiteSpace=wrap;html=1;fixedSize=1;" vertex="1" parent="WIyWlLk6GJQsqaUBKTNV-1">
          <mxGeometry x="170" y="80" width="290" height="60" as="geometry" />
        </mxCell>
        <mxCell id="3_x2MFgSif2VCrNl19pF-4" value="ログインページ&lt;br&gt;login.blade.php" style="shape=parallelogram;perimeter=parallelogramPerimeter;whiteSpace=wrap;html=1;fixedSize=1;" vertex="1" parent="WIyWlLk6GJQsqaUBKTNV-1">
          <mxGeometry x="170" y="360" width="130" height="40" as="geometry" />
        </mxCell>
        <mxCell id="3_x2MFgSif2VCrNl19pF-5" value="新規登録ページ&lt;br&gt;register.blade.php" style="shape=parallelogram;perimeter=parallelogramPerimeter;whiteSpace=wrap;html=1;fixedSize=1;" vertex="1" parent="WIyWlLk6GJQsqaUBKTNV-1">
          <mxGeometry x="330" y="360" width="130" height="40" as="geometry" />
        </mxCell>
        <mxCell id="3_x2MFgSif2VCrNl19pF-14" value="NG" style="edgeStyle=orthogonalEdgeStyle;rounded=0;orthogonalLoop=1;jettySize=auto;html=1;exitX=0;exitY=0.5;exitDx=0;exitDy=0;endArrow=block;endFill=0;entryX=0;entryY=0.5;entryDx=0;entryDy=0;" edge="1" parent="WIyWlLk6GJQsqaUBKTNV-1" source="3_x2MFgSif2VCrNl19pF-6" target="3_x2MFgSif2VCrNl19pF-4">
          <mxGeometry x="0.0968" y="10" relative="1" as="geometry">
            <mxPoint x="140" y="370" as="targetPoint" />
            <Array as="points">
              <mxPoint x="140" y="465" />
              <mxPoint x="140" y="380" />
            </Array>
            <mxPoint as="offset" />
          </mxGeometry>
        </mxCell>
        <mxCell id="3_x2MFgSif2VCrNl19pF-6" value="DB1※と照合" style="rounded=1;whiteSpace=wrap;html=1;" vertex="1" parent="WIyWlLk6GJQsqaUBKTNV-1">
          <mxGeometry x="170" y="440" width="130" height="50" as="geometry" />
        </mxCell>
        <mxCell id="3_x2MFgSif2VCrNl19pF-10" value="" style="endArrow=block;html=1;endFill=0;exitX=0.5;exitY=1;exitDx=0;exitDy=0;entryX=0.5;entryY=0;entryDx=0;entryDy=0;" edge="1" parent="WIyWlLk6GJQsqaUBKTNV-1" source="3_x2MFgSif2VCrNl19pF-4" target="3_x2MFgSif2VCrNl19pF-6">
          <mxGeometry width="50" height="50" relative="1" as="geometry">
            <mxPoint x="360" y="560" as="sourcePoint" />
            <mxPoint x="360" y="610" as="targetPoint" />
          </mxGeometry>
        </mxCell>
        <mxCell id="3_x2MFgSif2VCrNl19pF-11" value="" style="endArrow=block;html=1;endFill=0;exitX=0.5;exitY=1;exitDx=0;exitDy=0;entryX=0.5;entryY=0;entryDx=0;entryDy=0;rounded=0;" edge="1" target="3_x2MFgSif2VCrNl19pF-12" parent="WIyWlLk6GJQsqaUBKTNV-1">
          <mxGeometry width="50" height="50" relative="1" as="geometry">
            <mxPoint x="395" y="400" as="sourcePoint" />
            <mxPoint x="520" y="610" as="targetPoint" />
          </mxGeometry>
        </mxCell>
        <mxCell id="3_x2MFgSif2VCrNl19pF-12" value="バリデーション&lt;br&gt;チェック※" style="rounded=1;whiteSpace=wrap;html=1;" vertex="1" parent="WIyWlLk6GJQsqaUBKTNV-1">
          <mxGeometry x="330" y="440" width="130" height="50" as="geometry" />
        </mxCell>
        <mxCell id="3_x2MFgSif2VCrNl19pF-15" value="NG" style="edgeStyle=orthogonalEdgeStyle;rounded=0;orthogonalLoop=1;jettySize=auto;html=1;exitX=1;exitY=0.5;exitDx=0;exitDy=0;endArrow=block;endFill=0;entryX=1;entryY=0.5;entryDx=0;entryDy=0;" edge="1" parent="WIyWlLk6GJQsqaUBKTNV-1" source="3_x2MFgSif2VCrNl19pF-12" target="3_x2MFgSif2VCrNl19pF-5">
          <mxGeometry x="0.0968" y="-10" relative="1" as="geometry">
            <mxPoint x="530" y="380" as="targetPoint" />
            <mxPoint x="520" y="465" as="sourcePoint" />
            <Array as="points">
              <mxPoint x="490" y="465" />
              <mxPoint x="490" y="380" />
            </Array>
            <mxPoint as="offset" />
          </mxGeometry>
        </mxCell>
        <mxCell id="3_x2MFgSif2VCrNl19pF-16" value="OK" style="endArrow=block;html=1;endFill=0;exitX=0.5;exitY=1;exitDx=0;exitDy=0;entryX=0.5;entryY=0;entryDx=0;entryDy=0;" edge="1" parent="WIyWlLk6GJQsqaUBKTNV-1" source="3_x2MFgSif2VCrNl19pF-6" target="3_x2MFgSif2VCrNl19pF-19">
          <mxGeometry y="-15" width="50" height="50" relative="1" as="geometry">
            <mxPoint x="220" y="520" as="sourcePoint" />
            <mxPoint x="235" y="530" as="targetPoint" />
            <mxPoint as="offset" />
          </mxGeometry>
        </mxCell>
        <mxCell id="3_x2MFgSif2VCrNl19pF-17" value="OK" style="endArrow=block;html=1;endFill=0;rounded=0;entryX=1;entryY=0.5;entryDx=0;entryDy=0;" edge="1" parent="WIyWlLk6GJQsqaUBKTNV-1">
          <mxGeometry x="-0.9469" y="-15" width="50" height="50" relative="1" as="geometry">
            <mxPoint x="395" y="491" as="sourcePoint" />
            <mxPoint x="450" y="111" as="targetPoint" />
            <Array as="points">
              <mxPoint x="395" y="530" />
              <mxPoint x="560" y="530" />
              <mxPoint x="560" y="111" />
            </Array>
            <mxPoint as="offset" />
          </mxGeometry>
        </mxCell>
        <mxCell id="3_x2MFgSif2VCrNl19pF-19" value="トップページ&lt;br&gt;home.blade.php" style="shape=parallelogram;perimeter=parallelogramPerimeter;whiteSpace=wrap;html=1;fixedSize=1;" vertex="1" parent="WIyWlLk6GJQsqaUBKTNV-1">
          <mxGeometry x="170" y="565" width="130" height="40" as="geometry" />
        </mxCell>
        <mxCell id="3_x2MFgSif2VCrNl19pF-20" value="&lt;font style=&quot;font-size: 14px&quot;&gt;※DB1とは&lt;br&gt;ユーザー名前とパスワードを管理するデータベース&lt;br&gt;&lt;br&gt;&lt;br&gt;※バリデーションチェックの内容&lt;br&gt;・名前、パスワードの両方が入力されているか&lt;br&gt;&lt;div&gt;・名前、パスワードの両方が指定の文字数以上か&lt;/div&gt;&lt;/font&gt;" style="text;html=1;strokeColor=#d6b656;fillColor=#fff2cc;align=left;verticalAlign=middle;whiteSpace=wrap;rounded=0;" vertex="1" parent="WIyWlLk6GJQsqaUBKTNV-1">
          <mxGeometry x="170" y="650" width="330" height="170" as="geometry" />
        </mxCell>
        <mxCell id="3_x2MFgSif2VCrNl19pF-21" value="DB1※" style="shape=cylinder2;whiteSpace=wrap;html=1;boundedLbl=1;backgroundOutline=1;size=15;verticalAlign=middle;" vertex="1" parent="WIyWlLk6GJQsqaUBKTNV-1">
          <mxGeometry x="40" y="425" width="60" height="80" as="geometry" />
        </mxCell>
        <mxCell id="3_x2MFgSif2VCrNl19pF-22" value="" style="endArrow=block;html=1;endFill=0;" edge="1" parent="WIyWlLk6GJQsqaUBKTNV-1">
          <mxGeometry width="50" height="50" relative="1" as="geometry">
            <mxPoint x="100" y="480" as="sourcePoint" />
            <mxPoint x="170" y="480" as="targetPoint" />
          </mxGeometry>
        </mxCell>
      </root>
    </mxGraphModel>
  </diagram>
</mxfile>
